<mxfile host="app.diagrams.net" agent="Mozilla/5.0 (Macintosh; Intel Mac OS X 10_15_7) AppleWebKit/537.36 (KHTML, like Gecko) Chrome/129.0.0.0 Safari/537.36" version="24.7.17">
  <diagram name="第 1 页" id="kxw3Q4vrvqqLlg5HcAQ6">
    <mxGraphModel dx="984" dy="659" grid="1" gridSize="10" guides="1" tooltips="1" connect="1" arrows="1" fold="1" page="1" pageScale="1" pageWidth="827" pageHeight="1169" math="0" shadow="0">
      <root>
        <mxCell id="0" />
        <mxCell id="1" parent="0" />
        <mxCell id="zSnTwhz2m5YpEGrpufgq-8" value="" style="edgeStyle=orthogonalEdgeStyle;rounded=0;orthogonalLoop=1;jettySize=auto;html=1;" edge="1" parent="1" source="zSnTwhz2m5YpEGrpufgq-1" target="zSnTwhz2m5YpEGrpufgq-5">
          <mxGeometry relative="1" as="geometry" />
        </mxCell>
        <mxCell id="zSnTwhz2m5YpEGrpufgq-1" value="输入模块" style="rounded=1;whiteSpace=wrap;html=1;" vertex="1" parent="1">
          <mxGeometry x="170" y="120" width="150" height="80" as="geometry" />
        </mxCell>
        <mxCell id="zSnTwhz2m5YpEGrpufgq-13" value="" style="edgeStyle=orthogonalEdgeStyle;rounded=0;orthogonalLoop=1;jettySize=auto;html=1;entryX=0;entryY=0.5;entryDx=0;entryDy=0;" edge="1" parent="1" source="zSnTwhz2m5YpEGrpufgq-2" target="zSnTwhz2m5YpEGrpufgq-3">
          <mxGeometry relative="1" as="geometry">
            <mxPoint x="435" y="430" as="targetPoint" />
          </mxGeometry>
        </mxCell>
        <mxCell id="zSnTwhz2m5YpEGrpufgq-14" value="执行API指令" style="edgeLabel;html=1;align=center;verticalAlign=middle;resizable=0;points=[];" vertex="1" connectable="0" parent="zSnTwhz2m5YpEGrpufgq-13">
          <mxGeometry x="-0.16" y="-3" relative="1" as="geometry">
            <mxPoint as="offset" />
          </mxGeometry>
        </mxCell>
        <mxCell id="zSnTwhz2m5YpEGrpufgq-2" value="控制指令生成模块" style="rounded=1;whiteSpace=wrap;html=1;" vertex="1" parent="1">
          <mxGeometry x="170" y="390" width="150" height="80" as="geometry" />
        </mxCell>
        <mxCell id="zSnTwhz2m5YpEGrpufgq-16" value="" style="edgeStyle=orthogonalEdgeStyle;rounded=0;orthogonalLoop=1;jettySize=auto;html=1;" edge="1" parent="1" source="zSnTwhz2m5YpEGrpufgq-3">
          <mxGeometry relative="1" as="geometry">
            <mxPoint x="545" y="210" as="targetPoint" />
          </mxGeometry>
        </mxCell>
        <mxCell id="zSnTwhz2m5YpEGrpufgq-17" value="反馈状态" style="edgeLabel;html=1;align=center;verticalAlign=middle;resizable=0;points=[];" vertex="1" connectable="0" parent="zSnTwhz2m5YpEGrpufgq-16">
          <mxGeometry x="0.1302" relative="1" as="geometry">
            <mxPoint as="offset" />
          </mxGeometry>
        </mxCell>
        <mxCell id="zSnTwhz2m5YpEGrpufgq-3" value="车床执行模块" style="rounded=1;whiteSpace=wrap;html=1;" vertex="1" parent="1">
          <mxGeometry x="470" y="390" width="150" height="80" as="geometry" />
        </mxCell>
        <mxCell id="zSnTwhz2m5YpEGrpufgq-18" style="edgeStyle=orthogonalEdgeStyle;rounded=0;orthogonalLoop=1;jettySize=auto;html=1;exitX=0;exitY=0.5;exitDx=0;exitDy=0;entryX=1;entryY=0.5;entryDx=0;entryDy=0;" edge="1" parent="1" source="zSnTwhz2m5YpEGrpufgq-4" target="zSnTwhz2m5YpEGrpufgq-1">
          <mxGeometry relative="1" as="geometry" />
        </mxCell>
        <mxCell id="zSnTwhz2m5YpEGrpufgq-19" value="强化反馈或二次反馈" style="edgeLabel;html=1;align=center;verticalAlign=middle;resizable=0;points=[];" vertex="1" connectable="0" parent="zSnTwhz2m5YpEGrpufgq-18">
          <mxGeometry x="0.0143" relative="1" as="geometry">
            <mxPoint as="offset" />
          </mxGeometry>
        </mxCell>
        <mxCell id="zSnTwhz2m5YpEGrpufgq-20" style="edgeStyle=orthogonalEdgeStyle;rounded=0;orthogonalLoop=1;jettySize=auto;html=1;" edge="1" parent="1" source="zSnTwhz2m5YpEGrpufgq-4">
          <mxGeometry relative="1" as="geometry">
            <mxPoint x="535" y="80" as="targetPoint" />
          </mxGeometry>
        </mxCell>
        <mxCell id="zSnTwhz2m5YpEGrpufgq-4" value="反馈模块" style="rounded=1;whiteSpace=wrap;html=1;" vertex="1" parent="1">
          <mxGeometry x="460" y="120" width="150" height="80" as="geometry" />
        </mxCell>
        <mxCell id="zSnTwhz2m5YpEGrpufgq-11" value="生成api控制指令" style="edgeStyle=orthogonalEdgeStyle;rounded=0;orthogonalLoop=1;jettySize=auto;html=1;" edge="1" parent="1" source="zSnTwhz2m5YpEGrpufgq-5" target="zSnTwhz2m5YpEGrpufgq-2">
          <mxGeometry relative="1" as="geometry" />
        </mxCell>
        <mxCell id="zSnTwhz2m5YpEGrpufgq-5" value="多模态处理模块" style="rounded=1;whiteSpace=wrap;html=1;" vertex="1" parent="1">
          <mxGeometry x="170" y="250" width="150" height="80" as="geometry" />
        </mxCell>
        <mxCell id="zSnTwhz2m5YpEGrpufgq-6" value="" style="endArrow=classic;html=1;rounded=0;" edge="1" parent="1">
          <mxGeometry width="50" height="50" relative="1" as="geometry">
            <mxPoint x="100" y="159.5" as="sourcePoint" />
            <mxPoint x="170" y="159.5" as="targetPoint" />
          </mxGeometry>
        </mxCell>
        <mxCell id="zSnTwhz2m5YpEGrpufgq-7" value="图像、文本、语音" style="edgeLabel;html=1;align=center;verticalAlign=middle;resizable=0;points=[];" vertex="1" connectable="0" parent="zSnTwhz2m5YpEGrpufgq-6">
          <mxGeometry x="-0.1429" y="2" relative="1" as="geometry">
            <mxPoint x="-50" y="3" as="offset" />
          </mxGeometry>
        </mxCell>
        <mxCell id="zSnTwhz2m5YpEGrpufgq-9" value="" style="endArrow=classic;html=1;rounded=0;" edge="1" parent="1">
          <mxGeometry width="50" height="50" relative="1" as="geometry">
            <mxPoint x="100" y="289.5" as="sourcePoint" />
            <mxPoint x="170" y="289.5" as="targetPoint" />
          </mxGeometry>
        </mxCell>
        <mxCell id="zSnTwhz2m5YpEGrpufgq-10" value="微调后的llava模型" style="edgeLabel;html=1;align=center;verticalAlign=middle;resizable=0;points=[];" vertex="1" connectable="0" parent="zSnTwhz2m5YpEGrpufgq-9">
          <mxGeometry x="-0.1429" y="2" relative="1" as="geometry">
            <mxPoint x="-50" y="3" as="offset" />
          </mxGeometry>
        </mxCell>
        <mxCell id="zSnTwhz2m5YpEGrpufgq-21" value="用户" style="text;html=1;align=center;verticalAlign=middle;resizable=0;points=[];autosize=1;strokeColor=none;fillColor=none;" vertex="1" parent="1">
          <mxGeometry x="510" y="50" width="50" height="30" as="geometry" />
        </mxCell>
      </root>
    </mxGraphModel>
  </diagram>
</mxfile>
